<svg width="66" height="76" viewBox="0 0 66 76" fill="none" xmlns="http://www.w3.org/2000/svg">
<g filter="url(#filter0_i_12_52)">
<path d="M50.0332 50.1785L50.0338 51.0467L50.7844 50.6105L52.4086 49.6667C52.8671 49.4426 53.3329 48.9095 53.3329 48.2253V44.3744V26.8413C53.3329 26.1602 52.952 25.7186 52.5437 25.4327L52.5268 25.4208L52.5089 25.4104L34.0808 14.6542C33.7707 14.4625 33.4357 14.3521 33.0823 14.3521C32.7291 14.3521 32.3942 14.4624 32.0842 14.6539L13.5915 25.3999C13.1329 25.6239 12.6671 26.157 12.6671 26.8413V44.3744V48.2253C12.6671 48.9064 13.0481 49.348 13.4563 49.6339L13.4733 49.6458L13.4911 49.6562L31.9192 60.4124C32.2682 60.6282 32.6473 60.7398 33.0453 60.7097L33.508 60.6747L33.5076 60.2107L33.4958 47.5622L33.4908 42.2274L33.4893 40.6221L33.4889 40.1868L33.4888 40.0738L33.4888 40.045V40.0439C33.4905 40.0419 33.4932 40.0391 33.4972 40.0358C33.5185 40.0181 33.5616 39.9977 33.6197 39.9977C33.6946 39.9977 33.7336 40.0214 33.7459 40.0319C33.7482 40.0338 33.7497 40.0354 33.7506 40.0364L33.769 59.6296L33.7698 60.4975L34.5202 60.0615L38.6649 57.653L38.9139 57.5083L38.9136 57.2203L38.8968 36.8549C38.8985 36.8527 38.9014 36.8495 38.9061 36.8454C38.9238 36.8299 38.9633 36.808 39.0278 36.808C39.0923 36.808 39.1317 36.8299 39.1494 36.8454C39.1541 36.8495 39.157 36.8527 39.1587 36.855L39.1749 56.4882L39.1756 57.3562L39.9261 56.9201L44.1163 54.4852L44.3653 54.3406L44.3651 54.0526L44.35 33.6076C44.3517 33.6054 44.3546 33.6021 44.3593 33.598C44.377 33.5826 44.4164 33.5606 44.4809 33.5606C44.5286 33.5606 44.5719 33.5791 44.5987 33.602C44.6051 33.6075 44.6093 33.6119 44.6119 33.6151L44.6264 53.3204L44.627 54.1885L45.3776 53.7523L49.5005 51.3566L49.7494 51.2119L49.7492 50.9239L49.7355 30.4096C49.7364 30.4086 49.7379 30.407 49.7402 30.4051C49.7526 30.3946 49.7915 30.3709 49.8665 30.3709C49.9264 30.3709 49.9794 30.3926 50.0092 30.4163C50.014 30.4202 50.0175 30.4233 50.02 30.4258L50.0332 50.1785ZM39.1587 36.846V36.8464V36.846ZM44.6119 33.5987V33.599V33.5987ZM50.0251 30.432C50.025 30.432 50.0246 30.4315 50.0241 30.4304C50.0248 30.4314 50.0251 30.4319 50.0251 30.432ZM0.910408 56.0168L0.890643 56.0053L0.869906 55.9956C0.786518 55.9567 0.688142 55.8796 0.612682 55.7739C0.538993 55.6707 0.5 55.5588 0.5 55.4496V53.605V41.3084V30.6922V21.4615V19.617C0.5 19.4833 0.573498 19.3101 0.935735 19.0349L32.5114 0.604729L32.5293 0.59431L32.5462 0.582454C32.6707 0.495268 33.0301 0.436066 33.5221 0.624291L65.0896 19.0497L65.1094 19.0613L65.1301 19.071C65.2135 19.1099 65.3119 19.187 65.3873 19.2927C65.461 19.3959 65.5 19.5077 65.5 19.617V21.4615V30.6922V41.3084V53.605V55.4496C65.5 55.5833 65.4265 55.7564 65.0643 56.0316L33.4886 74.4618L33.4707 74.4723L33.4538 74.4841C33.3293 74.5713 32.97 74.6305 32.4779 74.4423L0.910408 56.0168Z" fill="#182CE4" fill-opacity="0.73" stroke="black"/>
</g>
<defs>
<filter id="filter0_i_12_52" x="0" y="0" width="66" height="79.0666" filterUnits="userSpaceOnUse" color-interpolation-filters="sRGB">
<feFlood flood-opacity="0" result="BackgroundImageFix"/>
<feBlend mode="normal" in="SourceGraphic" in2="BackgroundImageFix" result="shape"/>
<feColorMatrix in="SourceAlpha" type="matrix" values="0 0 0 0 0 0 0 0 0 0 0 0 0 0 0 0 0 0 127 0" result="hardAlpha"/>
<feOffset dy="4"/>
<feGaussianBlur stdDeviation="2"/>
<feComposite in2="hardAlpha" operator="arithmetic" k2="-1" k3="1"/>
<feColorMatrix type="matrix" values="0 0 0 0 0 0 0 0 0 0 0 0 0 0 0 0 0 0 0.36 0"/>
<feBlend mode="normal" in2="shape" result="effect1_innerShadow_12_52"/>
</filter>
</defs>
</svg>
